<svg width="661" height="192" viewBox="0 0 661 192" fill="none" xmlns="http://www.w3.org/2000/svg">
<g clip-path="url(#clip0_1_464)">
<path d="M65.8306 0.347214L96.3864 0.347214L96.3864 143.679C80.7352 146.709 69.2132 147.901 56.7467 147.901C19.4267 147.861 0 130.797 0 98.0253C0 66.4495 20.6065 45.9568 52.5388 45.9568C57.4939 45.9568 61.2688 46.3559 65.8306 47.5515V0.347214ZM66.9014 73.3815C63.3226 72.1853 60.3736 71.7868 56.5981 71.7868C41.1435 71.7868 32.2168 81.4347 32.2168 98.3428C32.2168 114.805 40.7507 123.895 56.402 123.895C59.7834 123.895 62.5363 123.7 66.9014 123.102L66.9014 73.3815Z" fill="#6CD3A1"/>
<path d="M146.354 49.8048V121.569C146.354 146.283 144.545 158.168 139.236 168.415C134.281 178.266 127.753 184.478 114.264 191.339L85.9109 177.664C99.3994 171.248 105.927 165.58 110.096 156.928C114.461 148.082 115.837 137.835 115.837 110.884L115.837 49.8054L146.354 49.8054V49.8048ZM112.758 0.347153L143.314 0.347153V32.1225H112.758V0.347153Z" fill="#6CD3A1"/>
</g>
<path d="M202.437 60.4494V18.0399H212.728V68.3807H203.486L202.437 60.4494ZM180.348 51.076V50.3878C180.348 47.7003 180.643 45.2532 181.232 43.0464C181.844 40.8178 182.729 38.906 183.887 37.311C185.067 35.6941 186.52 34.4487 188.246 33.5748C189.972 32.7008 191.95 32.2638 194.178 32.2638C196.232 32.2638 198.024 32.7226 199.553 33.6403C201.082 34.5361 202.383 35.8034 203.453 37.4421C204.546 39.0589 205.431 40.9707 206.108 43.1775C206.785 45.3625 207.299 47.7331 207.648 50.2895V51.4693C207.32 53.9164 206.807 56.1997 206.108 58.3191C205.431 60.4384 204.546 62.3066 203.453 63.9234C202.383 65.5184 201.072 66.7747 199.52 67.6924C197.991 68.5882 196.188 69.0361 194.113 69.0361C191.884 69.0361 189.907 68.5882 188.181 67.6924C186.476 66.7966 185.045 65.5403 183.887 63.9234C182.729 62.3066 181.844 60.4057 181.232 58.2207C180.643 56.0358 180.348 53.6542 180.348 51.076ZM190.573 50.3878V51.076C190.573 52.4744 190.671 53.7744 190.868 54.9761C191.086 56.1778 191.436 57.2375 191.917 58.1552C192.397 59.0729 193.031 59.7939 193.818 60.3183C194.604 60.8208 195.566 61.0721 196.702 61.0721C198.231 61.0721 199.488 60.7225 200.471 60.0233C201.454 59.3023 202.197 58.3081 202.699 57.0409C203.202 55.7736 203.464 54.2988 203.486 52.6164V49.1751C203.486 47.7768 203.344 46.5205 203.06 45.4061C202.776 44.2918 202.35 43.3523 201.782 42.5876C201.235 41.8229 200.547 41.2439 199.717 40.8506C198.887 40.4354 197.903 40.2279 196.767 40.2279C195.653 40.2279 194.703 40.4901 193.916 41.0144C193.129 41.517 192.485 42.2271 191.982 43.1447C191.502 44.0624 191.141 45.144 190.901 46.3894C190.682 47.6129 190.573 48.9457 190.573 50.3878ZM220.201 32.9193L230.492 32.9193V70.0194C230.492 72.7505 229.978 75.0556 228.951 76.9347C227.924 78.8355 226.439 80.2667 224.494 81.228C222.571 82.2113 220.266 82.7029 217.579 82.7029C216.705 82.7029 215.874 82.6592 215.088 82.5718C214.301 82.5062 213.46 82.3642 212.564 82.1457V74.3455C213.111 74.4329 213.635 74.4985 214.137 74.5422C214.618 74.6077 215.132 74.6405 215.678 74.6405C216.661 74.6405 217.48 74.4766 218.136 74.1489C218.813 73.8211 219.327 73.3077 219.676 72.6085C220.026 71.9312 220.201 71.0681 220.201 70.0194V32.9193ZM219.414 23.7426C219.414 22.2568 219.938 21.0442 220.987 20.1047C222.036 19.1433 223.423 18.6626 225.149 18.6626C226.854 18.6626 228.23 19.1433 229.279 20.1047C230.328 21.0442 230.852 22.2568 230.852 23.7426C230.852 25.2065 230.328 26.4191 229.279 27.3805C228.23 28.32 226.854 28.7898 225.149 28.7898C223.423 28.7898 222.036 28.32 220.987 27.3805C219.938 26.4191 219.414 25.2065 219.414 23.7426ZM256.154 59.925V44.7179C256.154 43.6473 255.99 42.7296 255.662 41.9649C255.334 41.2002 254.821 40.5993 254.122 40.1623C253.422 39.7253 252.516 39.5068 251.401 39.5068C250.462 39.5068 249.643 39.6707 248.943 39.9985C248.266 40.3262 247.742 40.796 247.37 41.4077C247.021 42.0195 246.846 42.7733 246.846 43.6691H236.62C236.62 42.0741 236.981 40.5884 237.702 39.2119C238.423 37.8354 239.45 36.6227 240.783 35.574C242.137 34.5252 243.754 33.7168 245.633 33.1487C247.512 32.5588 249.621 32.2638 251.959 32.2638C254.733 32.2638 257.202 32.7336 259.365 33.6731C261.55 34.5908 263.276 35.9782 264.544 37.8354C265.811 39.6707 266.445 41.9867 266.445 44.7834V59.63C266.445 61.7713 266.565 63.4536 266.805 64.6772C267.067 65.8789 267.439 66.9277 267.919 67.8235V68.3807H257.596C257.115 67.3537 256.754 66.0865 256.514 64.5789C256.274 63.0494 256.154 61.4981 256.154 59.925ZM257.432 46.7499L257.497 52.387H252.417C251.281 52.387 250.298 52.529 249.468 52.8131C248.659 53.0971 248.004 53.4904 247.501 53.9929C246.999 54.4736 246.627 55.0417 246.387 55.6972C246.168 56.3308 246.059 57.03 246.059 57.7947C246.059 58.5157 246.234 59.1712 246.584 59.7611C246.933 60.3292 247.414 60.7771 248.026 61.1049C248.637 61.4326 249.348 61.5965 250.156 61.5965C251.489 61.5965 252.625 61.3343 253.564 60.8099C254.526 60.2855 255.269 59.6519 255.793 58.909C256.317 58.1443 256.58 57.4342 256.58 56.7787L259.038 61.0393C258.644 61.9133 258.164 62.82 257.596 63.7595C257.028 64.6772 256.307 65.5403 255.433 66.3487C254.559 67.1353 253.499 67.7798 252.254 68.2823C251.03 68.7849 249.555 69.0361 247.829 69.0361C245.6 69.0361 243.579 68.5882 241.766 67.6924C239.952 66.7747 238.499 65.5184 237.407 63.9234C236.336 62.3284 235.801 60.4931 235.801 58.4174C235.801 56.5602 236.14 54.9106 236.817 53.4685C237.494 52.0265 238.51 50.8029 239.865 49.7979C241.241 48.7928 242.968 48.039 245.043 47.5365C247.119 47.0121 249.544 46.7499 252.319 46.7499H257.432ZM283.192 40.4901V68.3807H272.934V32.9193H282.569L283.192 40.4901ZM281.848 49.4046L279.292 49.4701C279.292 46.8045 279.62 44.412 280.275 42.2926C280.931 40.1732 281.859 38.3707 283.061 36.8849C284.285 35.3773 285.738 34.2302 287.42 33.4437C289.124 32.6571 291.003 32.2638 293.057 32.2638C294.718 32.2638 296.236 32.5042 297.613 32.9848C298.989 33.4655 300.169 34.2412 301.152 35.3118C302.157 36.3605 302.922 37.7589 303.446 39.5068C303.971 41.2329 304.233 43.3632 304.233 45.8978V68.3807L293.942 68.3807V45.865C293.942 44.3792 293.734 43.2321 293.319 42.4237C292.904 41.6153 292.292 41.0472 291.484 40.7195C290.697 40.3917 289.736 40.2279 288.6 40.2279C287.398 40.2279 286.371 40.4682 285.519 40.9489C284.667 41.4077 283.968 42.0523 283.421 42.8826C282.875 43.7128 282.471 44.6851 282.209 45.7994C281.969 46.9137 281.848 48.1155 281.848 49.4046ZM333.271 32.9193H342.578V67.1025C342.578 70.358 341.836 73.122 340.35 75.3943C338.886 77.6666 336.843 79.3927 334.221 80.5726C331.599 81.7524 328.529 82.3423 325.012 82.3423C323.482 82.3423 321.887 82.1348 320.227 81.7196C318.566 81.3264 317.004 80.7255 315.54 79.9171C314.076 79.1305 312.852 78.1254 311.869 76.9019L316.228 70.8715C317.233 72.0076 318.435 72.9253 319.833 73.6245C321.232 74.3455 322.827 74.706 324.618 74.706C326.257 74.706 327.644 74.4111 328.781 73.8211C329.917 73.2312 330.78 72.3682 331.37 71.232C331.982 70.0958 332.287 68.7193 332.287 67.1025V41.2111L333.271 32.9193ZM309.575 51.076V50.3878C309.575 47.7003 309.903 45.2532 310.558 43.0464C311.214 40.8178 312.164 38.906 313.41 37.311C314.677 35.6941 316.195 34.4487 317.965 33.5748C319.757 32.7008 321.767 32.2638 323.996 32.2638C326.399 32.2638 328.387 32.7226 329.96 33.6403C331.534 34.5361 332.812 35.8034 333.795 37.4421C334.778 39.0589 335.554 40.9707 336.122 43.1775C336.69 45.3625 337.149 47.7331 337.498 50.2895V51.4693C337.149 53.9164 336.646 56.1997 335.991 58.3191C335.335 60.4384 334.483 62.3066 333.434 63.9234C332.386 65.5184 331.075 66.7747 329.502 67.6924C327.95 68.5882 326.093 69.0361 323.93 69.0361C321.723 69.0361 319.735 68.5882 317.965 67.6924C316.195 66.7966 314.677 65.5403 313.41 63.9234C312.164 62.3066 311.214 60.4057 310.558 58.2207C309.903 56.0358 309.575 53.6542 309.575 51.076ZM319.801 50.3878V51.076C319.801 52.4744 319.932 53.7744 320.194 54.9761C320.478 56.1778 320.893 57.2375 321.439 58.1552C322.007 59.0729 322.706 59.7939 323.537 60.3183C324.389 60.8208 325.383 61.0721 326.519 61.0721C328.18 61.0721 329.523 60.7225 330.55 60.0233C331.599 59.3023 332.364 58.3081 332.845 57.0409C333.347 55.7736 333.609 54.2988 333.631 52.6164V49.1751C333.631 47.7768 333.489 46.5205 333.205 45.4061C332.921 44.2918 332.495 43.3523 331.927 42.5876C331.381 41.8229 330.66 41.2439 329.764 40.8506C328.89 40.4354 327.83 40.2279 326.585 40.2279C325.47 40.2279 324.487 40.4901 323.635 41.0144C322.783 41.517 322.073 42.2271 321.505 43.1447C320.937 44.0624 320.511 45.144 320.227 46.3894C319.943 47.6129 319.801 48.9457 319.801 50.3878ZM347.921 51.0105V50.3222C347.921 47.7222 348.292 45.3297 349.035 43.1447C349.778 40.938 350.87 39.0262 352.312 37.4093C353.754 35.7925 355.524 34.5361 357.622 33.6403C359.719 32.7226 362.123 32.2638 364.832 32.2638C367.585 32.2638 370.01 32.7226 372.108 33.6403C374.227 34.5361 376.008 35.7925 377.45 37.4093C378.892 39.0262 379.984 40.938 380.727 43.1447C381.47 45.3297 381.842 47.7222 381.842 50.3222V51.0105C381.842 53.5887 381.47 55.9812 380.727 58.188C379.984 60.3729 378.892 62.2847 377.45 63.9234C376.008 65.5403 374.238 66.7966 372.14 67.6924C370.043 68.5882 367.629 69.0361 364.897 69.0361C362.188 69.0361 359.774 68.5882 357.654 67.6924C355.535 66.7966 353.754 65.5403 352.312 63.9234C350.87 62.2847 349.778 60.3729 349.035 58.188C348.292 55.9812 347.921 53.5887 347.921 51.0105ZM358.179 50.3222V51.0105C358.179 52.4088 358.288 53.7198 358.507 54.9434C358.747 56.1669 359.129 57.2375 359.654 58.1552C360.178 59.0729 360.866 59.7939 361.718 60.3183C362.592 60.8208 363.652 61.0721 364.897 61.0721C366.143 61.0721 367.192 60.8208 368.044 60.3183C368.896 59.7939 369.584 59.0729 370.108 58.1552C370.633 57.2375 371.004 56.1669 371.223 54.9434C371.463 53.7198 371.583 52.4088 371.583 51.0105V50.3222C371.583 48.9457 371.463 47.6566 371.223 46.4549C371.004 45.2314 370.633 44.1498 370.108 43.2103C369.584 42.2708 368.885 41.5388 368.011 41.0144C367.159 40.4901 366.099 40.2279 364.832 40.2279C363.608 40.2279 362.57 40.4901 361.718 41.0144C360.866 41.5388 360.178 42.2708 359.654 43.2103C359.129 44.1498 358.747 45.2314 358.507 46.4549C358.288 47.6566 358.179 48.9457 358.179 50.3222ZM418.745 61.0721C419.837 61.0721 420.788 60.8645 421.596 60.4494C422.405 60.0342 423.027 59.4552 423.464 58.7124C423.923 57.9476 424.153 57.03 424.153 55.9593H433.788C433.788 58.5376 433.122 60.8099 431.789 62.7763C430.478 64.7428 428.708 66.2831 426.48 67.3974C424.251 68.4899 421.738 69.0361 418.942 69.0361C416.189 69.0361 413.785 68.5882 411.731 67.6924C409.678 66.7747 407.962 65.4966 406.586 63.8579C405.209 62.2192 404.172 60.3183 403.472 58.1552C402.795 55.9703 402.456 53.6106 402.456 51.076V50.2239C402.456 47.7112 402.795 45.3625 403.472 43.1775C404.172 40.9926 405.209 39.0808 406.586 37.4421C407.962 35.8034 409.667 34.5361 411.699 33.6403C413.752 32.7226 416.156 32.2638 418.909 32.2638C421.815 32.2638 424.382 32.821 426.611 33.9353C428.861 35.0496 430.62 36.6555 431.887 38.753C433.155 40.8287 433.788 43.3305 433.788 46.2583L424.153 46.2583C424.153 45.1221 423.945 44.1061 423.53 43.2103C423.137 42.2926 422.525 41.5716 421.695 41.0472C420.886 40.501 419.881 40.2279 418.679 40.2279C417.434 40.2279 416.407 40.501 415.599 41.0472C414.812 41.5716 414.211 42.3036 413.796 43.2431C413.381 44.1826 413.097 45.2532 412.944 46.4549C412.791 47.6348 412.715 48.8911 412.715 50.2239V51.076C412.715 52.4307 412.791 53.7198 412.944 54.9434C413.097 56.1451 413.381 57.2048 413.796 58.1224C414.233 59.0401 414.845 59.7611 415.631 60.2855C416.418 60.8099 417.456 61.0721 418.745 61.0721ZM437.393 51.0105V50.3222C437.393 47.7222 437.765 45.3297 438.508 43.1447C439.251 40.938 440.343 39.0262 441.785 37.4093C443.227 35.7925 444.997 34.5361 447.094 33.6403C449.192 32.7226 451.595 32.2638 454.305 32.2638C457.058 32.2638 459.483 32.7226 461.58 33.6403C463.7 34.5361 465.481 35.7925 466.923 37.4093C468.365 39.0262 469.457 40.938 470.2 43.1447C470.943 45.3297 471.314 47.7222 471.314 50.3222V51.0105C471.314 53.5887 470.943 55.9812 470.2 58.188C469.457 60.3729 468.365 62.2847 466.923 63.9234C465.481 65.5403 463.711 66.7966 461.613 67.6924C459.516 68.5882 457.101 69.0361 454.37 69.0361C451.661 69.0361 449.247 68.5882 447.127 67.6924C445.008 66.7966 443.227 65.5403 441.785 63.9234C440.343 62.2847 439.251 60.3729 438.508 58.188C437.765 55.9812 437.393 53.5887 437.393 51.0105ZM447.652 50.3222V51.0105C447.652 52.4088 447.761 53.7198 447.979 54.9434C448.22 56.1669 448.602 57.2375 449.126 58.1552C449.651 59.0729 450.339 59.7939 451.191 60.3183C452.065 60.8208 453.125 61.0721 454.37 61.0721C455.616 61.0721 456.664 60.8208 457.516 60.3183C458.369 59.7939 459.057 59.0729 459.581 58.1552C460.106 57.2375 460.477 56.1669 460.696 54.9434C460.936 53.7198 461.056 52.4088 461.056 51.0105V50.3222C461.056 48.9457 460.936 47.6566 460.696 46.4549C460.477 45.2314 460.106 44.1498 459.581 43.2103C459.057 42.2708 458.358 41.5388 457.484 41.0144C456.632 40.4901 455.572 40.2279 454.305 40.2279C453.081 40.2279 452.043 40.4901 451.191 41.0144C450.339 41.5388 449.651 42.2708 449.126 43.2103C448.602 44.1498 448.22 45.2314 447.979 46.4549C447.761 47.6566 447.652 48.9457 447.652 50.3222ZM487.472 18.0399V68.3807H477.214V18.0399H487.472ZM493.371 51.0105V50.3222C493.371 47.7222 493.743 45.3297 494.485 43.1447C495.228 40.938 496.321 39.0262 497.763 37.4093C499.205 35.7925 500.975 34.5361 503.072 33.6403C505.17 32.7226 507.573 32.2638 510.282 32.2638C513.036 32.2638 515.461 32.7226 517.558 33.6403C519.678 34.5361 521.458 35.7925 522.9 37.4093C524.343 39.0262 525.435 40.938 526.178 43.1447C526.921 45.3297 527.292 47.7222 527.292 50.3222V51.0105C527.292 53.5887 526.921 55.9812 526.178 58.188C525.435 60.3729 524.343 62.2847 522.9 63.9234C521.458 65.5403 519.689 66.7966 517.591 67.6924C515.494 68.5882 513.079 69.0361 510.348 69.0361C507.639 69.0361 505.224 68.5882 503.105 67.6924C500.986 66.7966 499.205 65.5403 497.763 63.9234C496.321 62.2847 495.228 60.3729 494.485 58.188C493.743 55.9812 493.371 53.5887 493.371 51.0105ZM503.629 50.3222V51.0105C503.629 52.4088 503.739 53.7198 503.957 54.9434C504.197 56.1669 504.58 57.2375 505.104 58.1552C505.629 59.0729 506.317 59.7939 507.169 60.3183C508.043 60.8208 509.103 61.0721 510.348 61.0721C511.593 61.0721 512.642 60.8208 513.494 60.3183C514.346 59.7939 515.035 59.0729 515.559 58.1552C516.083 57.2375 516.455 56.1669 516.673 54.9434C516.914 53.7198 517.034 52.4088 517.034 51.0105V50.3222C517.034 48.9457 516.914 47.6566 516.673 46.4549C516.455 45.2314 516.083 44.1498 515.559 43.2103C515.035 42.2708 514.336 41.5388 513.462 41.0144C512.609 40.4901 511.55 40.2279 510.282 40.2279C509.059 40.2279 508.021 40.4901 507.169 41.0144C506.317 41.5388 505.629 42.2708 505.104 43.2103C504.58 44.1498 504.197 45.2314 503.957 46.4549C503.739 47.6566 503.629 48.9457 503.629 50.3222ZM555.019 32.9193H564.327V67.1025C564.327 70.358 563.584 73.122 562.098 75.3943C560.634 77.6666 558.591 79.3927 555.969 80.5726C553.347 81.7524 550.278 82.3423 546.76 82.3423C545.23 82.3423 543.635 82.1348 541.975 81.7196C540.314 81.3264 538.752 80.7255 537.288 79.9171C535.824 79.1305 534.601 78.1254 533.618 76.9019L537.976 70.8715C538.982 72.0076 540.183 72.9253 541.582 73.6245C542.98 74.3455 544.575 74.706 546.367 74.706C548.005 74.706 549.393 74.4111 550.529 73.8211C551.665 73.2312 552.528 72.3682 553.118 71.232C553.73 70.0958 554.036 68.7193 554.036 67.1025V41.2111L555.019 32.9193ZM531.323 51.076V50.3878C531.323 47.7003 531.651 45.2532 532.307 43.0464C532.962 40.8178 533.913 38.906 535.158 37.311C536.425 35.6941 537.944 34.4487 539.713 33.5748C541.505 32.7008 543.515 32.2638 545.744 32.2638C548.147 32.2638 550.136 32.7226 551.709 33.6403C553.282 34.5361 554.56 35.8034 555.543 37.4421C556.527 39.0589 557.302 40.9707 557.87 43.1775C558.438 45.3625 558.897 47.7331 559.247 50.2895V51.4693C558.897 53.9164 558.395 56.1997 557.739 58.3191C557.084 60.4384 556.232 62.3066 555.183 63.9234C554.134 65.5184 552.823 66.7747 551.25 67.6924C549.699 68.5882 547.841 69.0361 545.678 69.0361C543.472 69.0361 541.483 68.5882 539.713 67.6924C537.944 66.7966 536.425 65.5403 535.158 63.9234C533.913 62.3066 532.962 60.4057 532.307 58.2207C531.651 56.0358 531.323 53.6542 531.323 51.076ZM541.549 50.3878V51.076C541.549 52.4744 541.68 53.7744 541.942 54.9761C542.226 56.1778 542.641 57.2375 543.188 58.1552C543.756 59.0729 544.455 59.7939 545.285 60.3183C546.137 60.8208 547.131 61.0721 548.267 61.0721C549.928 61.0721 551.272 60.7225 552.299 60.0233C553.347 59.3023 554.112 58.3081 554.593 57.0409C555.095 55.7736 555.358 54.2988 555.379 52.6164V49.1751C555.379 47.7768 555.237 46.5205 554.953 45.4061C554.669 44.2918 554.243 43.3523 553.675 42.5876C553.129 41.8229 552.408 41.2439 551.512 40.8506C550.638 40.4354 549.578 40.2279 548.333 40.2279C547.219 40.2279 546.235 40.4901 545.383 41.0144C544.531 41.517 543.821 42.2271 543.253 43.1447C542.685 44.0624 542.259 45.144 541.975 46.3894C541.691 47.6129 541.549 48.9457 541.549 50.3878ZM581.172 40.4901V68.3807H570.914V32.9193H580.55L581.172 40.4901ZM579.829 49.4046L577.272 49.4701C577.272 46.8045 577.6 44.412 578.256 42.2926C578.911 40.1732 579.84 38.3707 581.041 36.8849C582.265 35.3773 583.718 34.2302 585.4 33.4437C587.105 32.6571 588.984 32.2638 591.037 32.2638C592.698 32.2638 594.216 32.5042 595.593 32.9848C596.969 33.4655 598.149 34.2412 599.133 35.3118C600.138 36.3605 600.902 37.7589 601.427 39.5068C601.951 41.2329 602.213 43.3632 602.213 45.8978V68.3807H591.922V45.865C591.922 44.3792 591.715 43.2321 591.3 42.4237C590.884 41.6153 590.273 41.0472 589.464 40.7195C588.678 40.3917 587.716 40.2279 586.58 40.2279C585.378 40.2279 584.352 40.4682 583.499 40.9489C582.647 41.4077 581.948 42.0523 581.402 42.8826C580.856 43.7128 580.451 44.6851 580.189 45.7994C579.949 46.9137 579.829 48.1155 579.829 49.4046ZM625.614 69.0361C622.795 69.0361 620.272 68.5882 618.043 67.6924C615.815 66.7966 613.925 65.5621 612.373 63.989C610.844 62.394 609.675 60.5586 608.866 58.4829C608.058 56.4073 607.654 54.1896 607.654 51.8298V50.5844C607.654 47.9407 608.025 45.5045 608.768 43.2758C609.511 41.0472 610.593 39.1136 612.013 37.4749C613.455 35.8143 615.225 34.5361 617.322 33.6403C619.42 32.7226 621.812 32.2638 624.5 32.2638C627.012 32.2638 629.252 32.6789 631.218 33.5092C633.185 34.3176 634.845 35.4866 636.2 37.016C637.555 38.5236 638.581 40.348 639.281 42.4893C640.002 44.6087 640.362 46.9902 640.362 49.634V53.829H611.783V47.2415H630.333V46.4549C630.333 45.2095 630.104 44.117 629.645 43.1775C629.208 42.238 628.553 41.517 627.679 41.0144C626.827 40.4901 625.745 40.2279 624.434 40.2279C623.189 40.2279 622.151 40.4901 621.321 41.0144C620.49 41.5388 619.824 42.2817 619.321 43.2431C618.841 44.1826 618.491 45.286 618.273 46.5532C618.054 47.7986 617.945 49.1424 617.945 50.5844V51.8298C617.945 53.2063 618.131 54.4627 618.502 55.5988C618.873 56.735 619.42 57.7073 620.141 58.5157C620.862 59.3241 621.736 59.9578 622.763 60.4166C623.789 60.8754 624.958 61.1049 626.269 61.1049C627.886 61.1049 629.427 60.799 630.891 60.1872C632.354 59.5536 633.622 58.5703 634.692 57.2375L639.477 62.7108C638.756 63.7595 637.74 64.7755 636.429 65.7587C635.14 66.7201 633.589 67.5067 631.775 68.1185C629.962 68.7302 627.908 69.0361 625.614 69.0361Z" fill="#6CD3A1"/>
<defs>
<clipPath id="clip0_1_464">
<rect width="146.82" height="191.369" fill="white" transform="translate(0 0.347214)"/>
</clipPath>
</defs>
</svg>
