<svg width="985" height="124" viewBox="0 0 985 124" fill="none" xmlns="http://www.w3.org/2000/svg">
<path d="M34.3018 73.4877H13.9048L8.58598 84.0555H0.840332L24.3872 37.8214L47.108 84.0555H39.2589L34.3018 73.4877ZM31.3585 67.3545L24.2841 52.5879L16.8998 67.3545H31.3585Z" fill="white"/>
<path d="M73.8555 84.0555L83.8732 37.3024L100.191 71.1287L117.127 37.3495L126.112 84.1026H118.78L114.185 57.8718L100.087 86.1313L86.4034 57.8718L81.2915 84.1497H73.8555V84.0555Z" fill="white"/>
<path d="M158.645 84.0555V40.5576H165.772C168.974 40.5576 171.503 40.7934 173.361 41.2182C175.272 41.6898 176.872 42.4447 178.216 43.4827C179.557 44.5676 180.591 45.9831 181.365 47.6344C182.192 49.2857 182.554 50.9837 182.554 52.6821C182.554 55.796 181.263 58.438 178.628 60.6083C181.157 61.4102 183.173 62.7783 184.619 64.7596C186.115 66.6941 186.839 69.0058 186.839 71.5532C186.839 74.95 185.548 77.8281 182.913 80.1868C181.312 81.6494 179.557 82.64 177.597 83.2062C175.426 83.7723 172.742 84.0081 169.488 84.0081H158.645V84.0555ZM165.822 59.2399H168.094C170.779 59.2399 172.742 58.7209 173.98 57.636C175.222 56.5509 175.841 54.9467 175.841 52.8709C175.841 50.8424 175.222 49.2853 173.931 48.2005C172.64 47.1153 170.832 46.5963 168.404 46.5963H165.874V59.2399H165.822ZM165.822 77.8752H170.262C173.516 77.8752 175.891 77.309 177.389 76.1297C178.99 74.8558 179.817 73.299 179.817 71.3645C179.817 69.4774 179.043 67.9206 177.492 66.6467C175.996 65.3732 173.308 64.7596 169.438 64.7596H165.822V77.8752Z" fill="white"/>
<path d="M225.569 40.5576V84.0555H218.392V40.5576H225.569Z" fill="white"/>
<path d="M285.672 46.7379H266.568V57.1641H285.106V63.3444H266.568V77.8752H285.672V84.0555H259.391V40.5576H285.672V46.7379Z" fill="white"/>
<path d="M317.484 84.0557V37.6329L352.184 70.7985V40.5577H359.361V86.6976L324.661 53.6259V84.0557H317.484Z" fill="white"/>
<path d="M406.355 46.7379V84.0555H399.178V46.7379H388.229V40.5576H417.251V46.7379H406.355Z" fill="white"/>
<path d="M481.251 76.9446L492.136 61.3677L482.062 47.0554H487.446L495.032 58.3213H495.379L502.964 47.0554H508.349L498.274 61.5976L509.16 76.9446H503.775L495.379 64.8165H494.858L486.578 76.9446H481.251Z" fill="white"/>
<path d="M889.66 28.375H910.785V98.1875C910.785 103.604 909.743 108.167 907.66 111.875C905.576 115.625 902.597 118.458 898.722 120.375C894.847 122.333 890.222 123.312 884.847 123.312C883.056 123.312 881.41 123.229 879.91 123.062C878.368 122.938 876.681 122.667 874.847 122.25V106.312C875.931 106.479 876.931 106.604 877.847 106.688C878.764 106.812 879.764 106.875 880.847 106.875C882.764 106.875 884.368 106.562 885.66 105.938C886.951 105.312 887.931 104.354 888.597 103.062C889.306 101.771 889.66 100.146 889.66 98.1875V28.375ZM888.097 10.9375C888.097 7.9375 889.181 5.47917 891.347 3.5625C893.514 1.64583 896.326 0.6875 899.785 0.6875C903.243 0.6875 906.056 1.64583 908.222 3.5625C910.389 5.47917 911.472 7.9375 911.472 10.9375C911.472 13.9375 910.389 16.3958 908.222 18.3125C906.056 20.2292 903.243 21.1875 899.785 21.1875C896.326 21.1875 893.514 20.2292 891.347 18.3125C889.181 16.3958 888.097 13.9375 888.097 10.9375ZM958.16 77C958.16 75.8333 957.764 74.8333 956.972 74C956.222 73.125 954.889 72.3333 952.972 71.625C951.056 70.875 948.368 70.125 944.91 69.375C941.618 68.6667 938.514 67.7292 935.597 66.5625C932.722 65.3958 930.201 63.9792 928.035 62.3125C925.868 60.6458 924.16 58.6667 922.91 56.375C921.701 54.0833 921.097 51.4583 921.097 48.5C921.097 45.625 921.701 42.9167 922.91 40.375C924.16 37.7917 925.972 35.5208 928.347 33.5625C930.764 31.5625 933.701 30 937.16 28.875C940.618 27.7083 944.556 27.125 948.972 27.125C955.056 27.125 960.306 28.0625 964.722 29.9375C969.139 31.7708 972.535 34.3542 974.91 37.6875C977.326 40.9792 978.535 44.7917 978.535 49.125H957.472C957.472 47.4167 957.181 45.9583 956.597 44.75C956.056 43.5417 955.16 42.625 953.91 42C952.66 41.3333 950.993 41 948.91 41C947.451 41 946.118 41.2708 944.91 41.8125C943.743 42.3542 942.806 43.1042 942.097 44.0625C941.389 45.0208 941.035 46.1458 941.035 47.4375C941.035 48.3542 941.243 49.1875 941.66 49.9375C942.118 50.6458 942.806 51.3125 943.722 51.9375C944.639 52.5208 945.806 53.0625 947.222 53.5625C948.639 54.0208 950.347 54.4375 952.347 54.8125C956.889 55.6458 961.139 56.8333 965.097 58.375C969.056 59.9167 972.264 62.1042 974.722 64.9375C977.222 67.7708 978.472 71.5833 978.472 76.375C978.472 79.375 977.785 82.1458 976.41 84.6875C975.035 87.1875 973.056 89.3958 970.472 91.3125C967.889 93.1875 964.785 94.6458 961.16 95.6875C957.535 96.7292 953.451 97.25 948.91 97.25C942.451 97.25 936.993 96.1042 932.535 93.8125C928.076 91.4792 924.701 88.5625 922.41 85.0625C920.16 81.5208 919.035 77.9375 919.035 74.3125H938.66C938.743 76.3958 939.243 78.1042 940.16 79.4375C941.118 80.7708 942.389 81.75 943.972 82.375C945.556 83 947.389 83.3125 949.472 83.3125C951.389 83.3125 952.972 83.0417 954.222 82.5C955.514 81.9583 956.493 81.2292 957.16 80.3125C957.826 79.3542 958.16 78.25 958.16 77Z" fill="#FFE352"/>
<path d="M604.524 65.0063H615.143C614.968 68.2837 614.072 71.1788 612.456 73.6914C610.861 76.1822 608.643 78.1377 605.802 79.5579C602.962 80.9563 599.586 81.6555 595.675 81.6555C592.551 81.6555 589.754 81.1202 587.285 80.0496C584.816 78.9789 582.719 77.4495 580.993 75.4612C579.288 73.4511 577.977 71.0367 577.06 68.2182C576.164 65.3778 575.716 62.1768 575.716 58.6154V55.6985C575.716 52.1371 576.186 48.9362 577.125 46.0958C578.065 43.2554 579.409 40.8301 581.157 38.82C582.904 36.8098 585.002 35.2695 587.449 34.1989C589.896 33.1282 592.627 32.5929 595.643 32.5929C599.707 32.5929 603.137 33.3249 605.934 34.7888C608.73 36.2527 610.893 38.2628 612.423 40.8192C613.974 43.3755 614.903 46.2924 615.209 49.5698H604.557C604.47 47.7126 604.12 46.1504 603.508 44.8831C602.897 43.594 601.957 42.6217 600.69 41.9663C599.422 41.3108 597.74 40.9831 595.643 40.9831C594.113 40.9831 592.769 41.2671 591.611 41.8352C590.475 42.4033 589.525 43.2882 588.76 44.4899C588.017 45.6916 587.46 47.221 587.089 49.0782C586.717 50.9135 586.531 53.0985 586.531 55.633V58.6154C586.531 61.1281 586.695 63.3021 587.023 65.1374C587.351 66.9728 587.875 68.4913 588.596 69.693C589.339 70.8947 590.289 71.7905 591.448 72.3805C592.606 72.9704 594.015 73.2654 595.675 73.2654C597.576 73.2654 599.16 72.9704 600.428 72.3805C601.695 71.7687 602.667 70.851 603.344 69.6275C604.022 68.4039 604.415 66.8635 604.524 65.0063ZM660.863 56.0918V58.2221C660.863 61.8491 660.36 65.1047 659.355 67.9888C658.372 70.8729 656.963 73.3309 655.127 75.3629C653.314 77.3949 651.151 78.9571 648.638 80.0496C646.147 81.1202 643.383 81.6555 640.346 81.6555C637.309 81.6555 634.534 81.1202 632.022 80.0496C629.509 78.9571 627.324 77.3949 625.467 75.3629C623.631 73.3309 622.211 70.8729 621.206 67.9888C620.201 65.1047 619.699 61.8491 619.699 58.2221V56.0918C619.699 52.4648 620.201 49.2093 621.206 46.3252C622.211 43.4192 623.621 40.9503 625.434 38.9183C627.269 36.8863 629.443 35.335 631.956 34.2644C634.469 33.1719 637.244 32.6257 640.281 32.6257C643.318 32.6257 646.093 33.1719 648.605 34.2644C651.118 35.335 653.281 36.8863 655.094 38.9183C656.93 40.9503 658.35 43.4192 659.355 46.3252C660.36 49.2093 660.863 52.4648 660.863 56.0918ZM650.08 58.2221V56.0263C650.08 53.601 649.862 51.4598 649.425 49.6026C648.988 47.7236 648.354 46.1504 647.524 44.8831C646.693 43.6159 645.666 42.6654 644.443 42.0318C643.219 41.3763 641.832 41.0486 640.281 41.0486C638.664 41.0486 637.255 41.3763 636.053 42.0318C634.851 42.6654 633.835 43.6159 633.005 44.8831C632.196 46.1504 631.574 47.7236 631.137 49.6026C630.722 51.4598 630.514 53.601 630.514 56.0263V58.2221C630.514 60.6256 630.722 62.7668 631.137 64.6458C631.574 66.503 632.207 68.0762 633.038 69.3653C633.868 70.6544 634.884 71.6267 636.086 72.2821C637.309 72.9376 638.729 73.2654 640.346 73.2654C641.897 73.2654 643.274 72.9376 644.476 72.2821C645.699 71.6267 646.726 70.6544 647.556 69.3653C648.387 68.0762 649.009 66.503 649.425 64.6458C649.862 62.7668 650.08 60.6256 650.08 58.2221ZM698.553 72.741V81L674.464 81V72.741L698.553 72.741ZM678.102 33.2812V81H667.417V33.2812H678.102ZM741.421 56.0918V58.2221C741.421 61.8491 740.918 65.1047 739.913 67.9888C738.93 70.8729 737.521 73.3309 735.685 75.3629C733.872 77.3949 731.709 78.9571 729.196 80.0496C726.705 81.1202 723.942 81.6555 720.904 81.6555C717.867 81.6555 715.093 81.1202 712.58 80.0496C710.067 78.9571 707.882 77.3949 706.025 75.3629C704.19 73.3309 702.77 70.8729 701.764 67.9888C700.759 65.1047 700.257 61.8491 700.257 58.2221V56.0918C700.257 52.4648 700.759 49.2093 701.764 46.3252C702.77 43.4192 704.179 40.9503 705.992 38.9183C707.828 36.8863 710.002 35.335 712.514 34.2644C715.027 33.1719 717.802 32.6257 720.839 32.6257C723.876 32.6257 726.651 33.1719 729.163 34.2644C731.676 35.335 733.839 36.8863 735.653 38.9183C737.488 40.9503 738.908 43.4192 739.913 46.3252C740.918 49.2093 741.421 52.4648 741.421 56.0918ZM730.638 58.2221V56.0263C730.638 53.601 730.42 51.4598 729.983 49.6026C729.546 47.7236 728.912 46.1504 728.082 44.8831C727.252 43.6159 726.225 42.6654 725.001 42.0318C723.778 41.3763 722.39 41.0486 720.839 41.0486C719.222 41.0486 717.813 41.3763 716.611 42.0318C715.409 42.6654 714.393 43.6159 713.563 44.8831C712.755 46.1504 712.132 47.7236 711.695 49.6026C711.28 51.4598 711.072 53.601 711.072 56.0263V58.2221C711.072 60.6256 711.28 62.7668 711.695 64.6458C712.132 66.503 712.766 68.0762 713.596 69.3653C714.426 70.6544 715.442 71.6267 716.644 72.2821C717.867 72.9376 719.288 73.2654 720.904 73.2654C722.456 73.2654 723.832 72.9376 725.034 72.2821C726.258 71.6267 727.284 70.6544 728.115 69.3653C728.945 68.0762 729.568 66.503 729.983 64.6458C730.42 62.7668 730.638 60.6256 730.638 58.2221ZM786.42 55.7969V75.0351C785.633 75.931 784.431 76.8923 782.814 77.9193C781.219 78.9462 779.176 79.8311 776.686 80.5739C774.195 81.295 771.223 81.6555 767.771 81.6555C764.647 81.6555 761.806 81.1529 759.25 80.1479C756.694 79.121 754.498 77.6243 752.662 75.6579C750.827 73.6696 749.407 71.2443 748.402 68.382C747.419 65.5198 746.927 62.2424 746.927 58.5499V55.7313C746.927 52.0388 747.419 48.7614 748.402 45.8991C749.385 43.0369 750.772 40.6225 752.564 38.6561C754.356 36.6678 756.486 35.1602 758.955 34.1333C761.424 33.1064 764.155 32.5929 767.148 32.5929C771.409 32.5929 774.894 33.2812 777.603 34.6577C780.313 36.0123 782.366 37.8914 783.765 40.2948C785.185 42.6982 786.059 45.4622 786.387 48.5866L776.096 48.5866C775.877 46.9916 775.44 45.6151 774.785 44.4571C774.151 43.2991 773.244 42.4142 772.065 41.8024C770.885 41.1688 769.355 40.852 767.476 40.852C765.969 40.852 764.603 41.1688 763.379 41.8024C762.178 42.4142 761.162 43.3428 760.331 44.5882C759.501 45.8336 758.868 47.3849 758.431 49.2421C757.994 51.0774 757.775 53.2186 757.775 55.6658V58.5499C757.775 60.997 757.994 63.1491 758.431 65.0063C758.889 66.8635 759.556 68.4148 760.43 69.6602C761.304 70.8838 762.407 71.8124 763.74 72.446C765.095 73.0796 766.668 73.3965 768.459 73.3965C769.858 73.3965 771.038 73.2872 771.999 73.0687C772.96 72.8284 773.747 72.5334 774.359 72.1838C774.97 71.8124 775.429 71.4737 775.735 71.1678V63.2365H767.247V55.7969L786.42 55.7969ZM833.09 33.2812V81H822.438L804.412 50.1597V81H793.728V33.2812H804.412L822.471 64.1214V33.2812H833.09ZM873.434 72.741V81H848.034V72.741H873.434ZM851.672 33.2812V81H840.988V33.2812H851.672ZM870.157 52.4867V60.4835H848.034V52.4867H870.157ZM873.467 33.2812V41.573H848.034V33.2812H873.467Z" fill="#FFE352"/>
</svg>
